<?xml version="1.0" standalone="no"?><!DOCTYPE svg PUBLIC "-//W3C//DTD SVG 1.1//EN" "http://www.w3.org/Graphics/SVG/1.1/DTD/svg11.dtd"><svg t="1678514274388" class="icon" viewBox="0 0 1024 1024" version="1.1" xmlns="http://www.w3.org/2000/svg" p-id="1083" xmlns:xlink="http://www.w3.org/1999/xlink" width="200" height="200"><path d="M813.696 813.738667a426.666667 426.666667 0 1 0-603.434667 0 426.666667 426.666667 0 0 0 603.434667 0z" fill="#FFD264" p-id="1084"></path><path d="M735.232 147.797333A426.666667 426.666667 0 0 1 152.448 741.333333 426.666667 426.666667 0 1 0 735.232 147.797333z" fill="#FFC656" p-id="1085"></path><path d="M143.36 556.970667A396.16 396.16 0 0 1 853.333333 315.477333 396.202667 396.202667 0 1 0 195.968 754.432a393.898667 393.898667 0 0 1-52.608-197.461333z" fill="#FFD781" p-id="1086"></path><path d="M337.066667 605.866667a14.037333 14.037333 0 0 0-23.296 5.930666 14.037333 14.037333 0 0 0 0.426666 9.429334 213.845333 213.845333 0 0 0 395.477334 3.882666 14.464 14.464 0 0 0 0.469333-9.386666 14.037333 14.037333 0 0 0-23.210667-6.101334c-62.378667 60.501333-194.944 146.645333-349.866666-3.754666z" fill="#62422A" p-id="1087"></path><path d="M438.656 451.754667a42.197333 42.197333 0 0 0 8.533333-25.088c0-22.186667-18.730667-41.344-45.824-50.176h208.085334v75.264zM333.482667 376.490667h-5.632v2.005333c1.834667-0.725333 3.712-1.408 5.632-2.005333z" fill="#2D292A" p-id="1088"></path><path d="M303.317333 437.461333m-155.605333 0a155.605333 155.605333 0 1 0 311.210667 0 155.605333 155.605333 0 1 0-311.210667 0Z" fill="#474549" p-id="1089"></path><path d="M298.325333 421.632m-155.605333 0a155.605333 155.605333 0 1 0 311.210667 0 155.605333 155.605333 0 1 0-311.210667 0Z" fill="#2D292A" p-id="1090"></path><path d="M704.896 437.461333m-155.605333 0a155.605333 155.605333 0 1 0 311.210666 0 155.605333 155.605333 0 1 0-311.210666 0Z" fill="#474549" p-id="1091"></path><path d="M699.904 425.898667m-155.605333 0a155.605333 155.605333 0 1 0 311.210666 0 155.605333 155.605333 0 1 0-311.210666 0Z" fill="#2D292A" p-id="1092"></path></svg>