<svg xmlns="http://www.w3.org/2000/svg" viewBox="0 0 185.18 130.03"><path d="M127.48 46.51A63.78 63.78 0 0 0 93.85 6.85 67.63 67.63 0 0 0 69.1.12a64.81 64.81 0 0 0-25.27 3.6A64.1 64.1 0 0 0 .22 63.34C-.2 84.77.13 106.2 0 127.64c0 1.91.48 2.4 2.4 2.39 20-.08 40-.14 60 0A69.63 69.63 0 0 0 96 122.2c.33-.33 1-.34 1.07-.91a4.56 4.56 0 0 0 1.79-.75 55.39 55.39 0 0 0 11.48-8.76A64.9 64.9 0 0 0 129 77.24a64.17 64.17 0 0 0-1.52-30.73z" fill="#0f54ff"/><circle cx="121.45" cy="65.01" r="63.74" fill="#1eaaff" opacity=".4"/></svg>