<svg xmlns:xlink="http://www.w3.org/1999/xlink" xmlns="http://www.w3.org/2000/svg" version="1.1" viewBox="0 0 1240 589" height="589px" width="1240px">
    <title>大厦</title>
    <g fill-rule="evenodd" fill="none" stroke-width="1" stroke="none" id="Page-1">
        <g transform="translate(-4658.000000, -5945.000000)" id="背景">
            <g transform="translate(4665.000000, 5945.000000)" id="大厦">
                <polygon points="256.839233 393.899683 197.807892 393.899683 197.807892 271.309873 256.839233 222.316784" fill="#AAD5FF" id="Fill-1"></polygon>
                <polygon points="553.645365 576.575178 619.339232 576.575178 619.339232 362.925412 553.645365 362.925412" fill="#C3E4FF" id="Fill-2"></polygon>
                <polygon points="516.020741 439.923652 581.714607 439.923652 581.714607 226.273885 516.020741 226.273885" fill="#C3E4FF" id="Fill-3"></polygon>
                <polygon points="220.727584 579.731033 380.125779 579.731033 380.125779 358.758199 220.727584 358.758199" fill="#AAD5FF" id="Fill-4"></polygon>
                <polygon points="105.709611 576.235726 265.107805 576.235726 265.107805 355.262192 105.709611 355.262192" fill="#AAD5FF" id="Fill-5"></polygon>
                <polygon points="2.37642466 579.248101 161.774619 579.248101 161.774619 503.995415 2.37642466 503.995415" fill="#AAD5FF" id="Fill-6"></polygon>
                <polygon points="367.420724 578.203848 526.818918 578.203848 526.818918 454.665672 367.420724 454.665672" fill="#AAD5FF" id="Fill-7"></polygon>
                <line stroke-width="5.6" stroke="#C3E4FF" id="Stroke-8" y2="156.83094" x2="632.903676" y1="107.084056" x1="632.903676"></line>
                <polygon points="876.808329 579.248101 965.302856 579.248101 965.302856 299.886003 876.808329 299.886003" fill="#AAD5FF" id="Fill-9"></polygon>
                <polygon points="923.632852 443.19919 999.850584 443.19919 999.850584 246.032099 923.632852 246.032099" fill="#AAD5FF" id="Fill-10"></polygon>
                <polygon points="943.842958 252.017654 978.052696 252.017654 978.052696 236.987274 943.842958 236.987274" fill="#AAD5FF" id="Fill-11"></polygon>
                <polygon points="748.017379 221.871296 748.017379 581.94951 609.147687 581.94951 609.147687 120.217634 663.69489 160.147002 663.69489 218.854722 711.062436 218.854722 711.062436 194.820112" fill="#AAD5FF" id="Fill-12"></polygon>
                <line stroke-width="5.6" stroke="#C3E4FF" id="Stroke-13" y2="281.521223" x2="816.997513" y1="232.420349" x1="816.997513"></line>
                <polygon points="649.052237 579.248101 768.471775 579.248101 768.471775 262.785636 649.052237 262.785636" fill="#D6EEFF" id="Fill-14"></polygon>
                <polygon points="768.471775 579.248101 844.175876 579.248101 844.175876 262.785636 768.471775 262.785636" fill="#C3E4FF" id="Fill-15"></polygon>
                <polygon points="649.052937 303.787953 677.441975 303.787953 677.441975 289.05853 649.052937 289.05853" fill="#AAD5FF" id="Fill-16"></polygon>
                <polygon points="677.441975 318.368996 705.830313 318.368996 705.830313 303.640273 677.441975 303.640273" fill="#AAD5FF" id="Fill-17"></polygon>
                <polygon points="705.830313 303.787953 734.218651 303.787953 734.218651 289.05853 705.830313 289.05853" fill="#AAD5FF" id="Fill-18"></polygon>
                <polygon points="649.052937 318.368996 677.441975 318.368996 677.441975 303.640273 649.052937 303.640273" fill="#E8F6FF" id="Fill-19"></polygon>
                <polygon points="677.441975 417.786474 705.830313 417.786474 705.830313 403.057051 677.441975 403.057051" fill="#E8F6FF" id="Fill-20"></polygon>
                <polygon points="778.2028 318.368996 800.197324 318.368996 800.197324 303.640273 778.2028 303.640273" fill="#E8F6FF" id="Fill-21"></polygon>
                <polygon points="734.21935 492.083795 762.608388 492.083795 762.608388 477.354372 734.21935 477.354372" fill="#E8F6FF" id="Fill-22"></polygon>
                <polygon points="734.21935 333.098419 762.608388 333.098419 762.608388 318.368996 734.21935 318.368996" fill="#AAD5FF" id="Fill-23"></polygon>
                <polygon points="677.441975 403.057051 705.830313 403.057051 705.830313 388.328329 677.441975 388.328329" fill="#AAD5FF" id="Fill-24"></polygon>
                <polygon points="734.21935 417.786474 762.608388 417.786474 762.608388 403.057051 734.21935 403.057051" fill="#AAD5FF" id="Fill-25"></polygon>
                <polygon points="778.208398 303.787953 800.197324 303.787953 800.197324 289.05853 778.208398 289.05853" fill="#AAD5FF" id="Fill-26"></polygon>
                <polygon points="822.18695 318.516675 844.175876 318.516675 844.175876 303.787953 822.18695 303.787953" fill="#AAD5FF" id="Fill-27"></polygon>
                <polygon points="778.205599 375.370356 800.194525 375.370356 800.194525 360.641634 778.205599 360.641634" fill="#AAD5FF" id="Fill-28"></polygon>
                <polygon points="705.830313 492.083795 734.218651 492.083795 734.218651 477.354372 705.830313 477.354372" fill="#AAD5FF" id="Fill-29"></polygon>
                <polygon points="649.052937 529.865866 677.441975 529.865866 677.441975 515.136443 649.052937 515.136443" fill="#AAD5FF" id="Fill-30"></polygon>
                <polygon points="677.441975 544.595288 705.830313 544.595288 705.830313 529.865866 677.441975 529.865866" fill="#AAD5FF" id="Fill-31"></polygon>
                <polygon points="649.052937 333.098419 677.441975 333.098419 677.441975 318.368996 649.052937 318.368996" fill="#AAD5FF" id="Fill-32"></polygon>
                <polygon points="412.206812 328.800325 423.799929 328.800325 423.799929 308.108443 412.206812 308.108443" fill="#E8F6FF" id="Fill-33"></polygon>
                <polygon points="412.206812 287.416562 423.799929 287.416562 423.799929 266.72468 412.206812 266.72468" fill="#E8F6FF" id="Fill-34"></polygon>
                <polygon points="400.802632 579.248101 500.583078 579.248101 500.583078 47.0004709 400.802632 47.0004709" fill="#D6EEFF" id="Fill-35"></polygon>
                <polygon points="500.583078 579.248101 563.83684 579.248101 563.83684 47.0004709 500.583078 47.0004709" fill="#AAD5FF" id="Fill-36"></polygon>
                <polygon points="400.802632 34.7249023 500.583078 34.7249023 500.583078 10.3893346 400.802632 10.3893346" fill="#D6EEFF" id="Fill-37"></polygon>
                <polygon points="418.888932 25.0340691 459.145397 25.0340691 459.145397 0.698501481 418.888932 0.698501481" fill="#D6EEFF" id="Fill-38"></polygon>
                <polygon points="510.325999 25.0340691 550.581765 25.0340691 550.581765 0.698501481 510.325999 0.698501481" fill="#D6EEFF" id="Fill-39"></polygon>
                <polygon points="500.583078 34.7249023 563.83684 34.7249023 563.83684 10.3893346 500.583078 10.3893346" fill="#AAD5FF" id="Fill-40"></polygon>
                <polygon points="391.592237 46.999771 502.646005 46.999771 502.646005 34.7249023 391.592237 34.7249023" fill="#D6EEFF" id="Fill-41"></polygon>
                <polygon points="502.646704 46.999771 573.046535 46.999771 573.046535 34.7249023 502.646704 34.7249023" fill="#C3E4FF" id="Fill-42"></polygon>
                <polygon points="412.206812 579.248101 423.799929 579.248101 423.799929 59.0604699 412.206812 59.0604699" fill="#C3E4FF" id="Fill-43"></polygon>
                <polygon points="476.993774 579.248101 488.587591 579.248101 488.587591 59.0604699 476.993774 59.0604699" fill="#C3E4FF" id="Fill-44"></polygon>
                <polygon points="455.39812 579.248101 466.991237 579.248101 466.991237 59.0604699 455.39812 59.0604699" fill="#C3E4FF" id="Fill-45"></polygon>
                <polygon points="433.802466 579.248101 445.395583 579.248101 445.395583 59.0604699 433.802466 59.0604699" fill="#C3E4FF" id="Fill-46"></polygon>
                <polygon points="433.802466 308.108443 445.395583 308.108443 445.395583 287.416562 433.802466 287.416562" fill="#E8F6FF" id="Fill-47"></polygon>
                <polygon points="455.39812 498.723058 466.991237 498.723058 466.991237 478.031177 455.39812 478.031177" fill="#E8F6FF" id="Fill-48"></polygon>
                <polygon points="455.39812 478.031177 466.991237 478.031177 466.991237 457.339295 455.39812 457.339295" fill="#E8F6FF" id="Fill-49"></polygon>
                <polygon points="476.993774 415.90164 488.587591 415.90164 488.587591 395.209758 476.993774 395.209758" fill="#AAD5FF" id="Fill-50"></polygon>
                <polygon points="412.206812 436.897978 423.799929 436.897978 423.799929 416.206097 412.206812 416.206097" fill="#AAD5FF" id="Fill-52"></polygon>
                <polygon points="476.993774 244.910157 488.587591 244.910157 488.587591 224.218275 476.993774 224.218275" fill="#AAD5FF" id="Fill-53"></polygon>
                <polygon points="412.206812 212.391344 423.799929 212.391344 423.799929 191.699462 412.206812 191.699462" fill="#AAD5FF" id="Fill-54"></polygon>
                <polygon points="455.39812 436.647414 466.991237 436.647414 466.991237 415.955532 455.39812 415.955532" fill="#AAD5FF" id="Fill-55"></polygon>
                <polygon points="412.206812 522.501504 423.799929 522.501504 423.799929 501.809623 412.206812 501.809623" fill="#E8F6FF" id="Fill-57"></polygon>
                <polygon points="455.39812 287.416562 466.991237 287.416562 466.991237 266.72468 455.39812 266.72468" fill="#E8F6FF" id="Fill-58"></polygon>
                <polygon points="412.206812 349.492206 423.799929 349.492206 423.799929 328.800325 412.206812 328.800325" fill="#E8F6FF" id="Fill-59"></polygon>
                <polygon points="476.993774 167.177021 488.587591 167.177021 488.587591 146.485139 476.993774 146.485139" fill="#E8F6FF" id="Fill-60"></polygon>
                <polygon points="412.206812 135.017257 423.799929 135.017257 423.799929 114.325375 412.206812 114.325375" fill="#E8F6FF" id="Fill-61"></polygon>
                <polygon points="412.206812 155.709138 423.799929 155.709138 423.799929 135.017257 412.206812 135.017257" fill="#E8F6FF" id="Fill-62"></polygon>
                <polygon points="455.39812 266.72398 466.991237 266.72398 466.991237 246.032099 455.39812 246.032099" fill="#E8F6FF" id="Fill-63"></polygon>
                <polygon points="1130.26214 576.575178 1212.31457 576.575178 1212.31457 474.74724 1130.26214 474.74724" fill="#AAD5FF" id="Fill-64"></polygon>
                <polygon points="1163.72592 581.94902 1175.15459 581.94902 1175.15459 486.322907 1163.72592 486.322907" fill="#D6EEFF" id="Fill-65"></polygon>
                <polygon points="1185.25789 581.94902 1196.68656 581.94902 1196.68656 486.322907 1185.25789 486.322907" fill="#D6EEFF" id="Fill-66"></polygon>
                <line stroke-width="5.6" stroke="#C3E4FF" id="Stroke-67" y2="370.710974" x2="1119.72945" y1="319.154145" x1="1119.72945"></line>
                <polygon points="1019.47988 585.869867 1103.63232 585.869867 1103.63232 349.628687 1019.47988 349.628687" fill="#C3E4FF" id="Fill-68"></polygon>
                <polygon points="1030.4411 579.248101 1043.61011 579.248101 1043.61011 364.575779 1030.4411 364.575779" fill="#AAD5FF" id="Fill-69"></polygon>
                <polygon points="1054.9723 579.248101 1068.1413 579.248101 1068.1413 364.575779 1054.9723 364.575779" fill="#AAD5FF" id="Fill-70"></polygon>
                <polygon points="1079.5028 579.248101 1092.6718 579.248101 1092.6718 364.575779 1079.5028 364.575779" fill="#AAD5FF" id="Fill-71"></polygon>
                <polygon points="1103.63302 585.869867 1156.97942 585.869867 1156.97942 349.628687 1103.63302 349.628687" fill="#AAD5FF" id="Fill-72"></polygon>
                <polygon points="1114.00574 579.248101 1125.43371 579.248101 1125.43371 364.575779 1114.00574 364.575779" fill="#D6EEFF" id="Fill-73"></polygon>
                <polygon points="1135.8792 579.248101 1147.30787 579.248101 1147.30787 364.575779 1135.8792 364.575779" fill="#D6EEFF" id="Fill-74"></polygon>
                <polygon points="1135.8792 481.154836 1147.30787 481.154836 1147.30787 461.269941 1135.8792 461.269941" fill="#C3E4FF" id="Fill-75"></polygon>
                <polygon points="1135.8792 422.941947 1147.30787 422.941947 1147.30787 403.057051 1135.8792 403.057051" fill="#C3E4FF" id="Fill-76"></polygon>
                <polygon points="1114.00574 422.941947 1125.43371 422.941947 1125.43371 403.057051 1114.00574 403.057051" fill="#C3E4FF" id="Fill-77"></polygon>
                <polygon points="1114.01484 442.826842 1125.44351 442.826842 1125.44351 422.941947 1114.01484 422.941947" fill="#C3E4FF" id="Fill-78"></polygon>
                <polygon points="1163.72592 537.345011 1175.15459 537.345011 1175.15459 517.460115 1163.72592 517.460115" fill="#C3E4FF" id="Fill-79"></polygon>
                <polygon points="1185.25789 557.229206 1196.68656 557.229206 1196.68656 537.345011 1185.25789 537.345011" fill="#C3E4FF" id="Fill-80"></polygon>
                <polygon points="1114.01484 501.039032 1125.44351 501.039032 1125.44351 481.154836 1114.01484 481.154836" fill="#C3E4FF" id="Fill-81"></polygon>
                <polygon points="1135.8792 501.039032 1147.30787 501.039032 1147.30787 481.154836 1135.8792 481.154836" fill="#C3E4FF" id="Fill-82"></polygon>
                <line stroke-width="5.6" stroke="#C3E4FF" id="Stroke-83" y2="312.038879" x2="305.410805" y1="271.184241" x1="305.410805"></line>
                <polygon points="179.236721 328.800325 214.547901 328.800325 214.547901 298.650677 179.236721 298.650677" fill="#C3E4FF" id="Fill-84"></polygon>
                <polygon points="145.216621 579.248101 271.565998 579.248101 271.565998 312.038389 145.216621 312.038389" fill="#D6EEFF" id="Fill-85"></polygon>
                <polygon points="158.135806 579.248101 172.777129 579.248101 172.777129 325.237827 158.135806 325.237827" fill="#AAD5FF" id="Fill-86"></polygon>
                <polygon points="185.408708 579.248101 200.050031 579.248101 200.050031 325.237827 185.408708 325.237827" fill="#AAD5FF" id="Fill-87"></polygon>
                <polygon points="212.682309 579.248101 227.323632 579.248101 227.323632 325.237827 212.682309 325.237827" fill="#AAD5FF" id="Fill-88"></polygon>
                <polygon points="239.955211 579.248101 254.596534 579.248101 254.596534 325.237827 239.955211 325.237827" fill="#AAD5FF" id="Fill-89"></polygon>
                <polygon points="284.916942 328.800325 320.228821 328.800325 320.228821 298.650677 284.916942 298.650677" fill="#C3E4FF" id="Fill-90"></polygon>
                <polygon points="271.565998 579.248101 351.662565 579.248101 351.662565 312.038389 271.565998 312.038389" fill="#C3E4FF" id="Fill-91"></polygon>
                <polygon points="298.535898 579.248101 313.177221 579.248101 313.177221 400.181157 298.535898 400.181157" fill="#D6EEFF" id="Fill-92"></polygon>
                <polygon points="325.8095 579.248101 340.450823 579.248101 340.450823 400.181157 325.8095 400.181157" fill="#D6EEFF" id="Fill-93"></polygon>
                <polygon points="48.3255331 581.135734 157.700548 581.135734 157.700548 430.761244 48.3255331 430.761244" fill="#D6EEFF" id="Fill-94"></polygon>
                <polygon points="157.700548 581.135734 227.036726 581.135734 227.036726 430.761244 157.700548 430.761244" fill="#C3E4FF" id="Fill-95"></polygon>
                <g fill="#AAD5FF" transform="translate(48.284247, 436.304462)" id="Group-108">
                    <polygon points="0.0412865297 125.392914 157.220505 125.392914 157.220505 112.423043 0.0412865297 112.423043" id="Fill-96"></polygon>
                    <polygon points="0.0412865297 103.026869 157.220505 103.026869 157.220505 90.056998 0.0412865297 90.056998" id="Fill-98"></polygon>
                    <polygon points="0.0412865297 80.6615232 157.220505 80.6615232 157.220505 67.6916525 0.0412865297 67.6916525" id="Fill-100"></polygon>
                    <polygon points="0.0412865297 58.2954778 157.220505 58.2954778 157.220505 45.3256071 0.0412865297 45.3256071" id="Fill-102"></polygon>
                    <polygon points="0.0412865297 35.9294324 157.220505 35.9294324 157.220505 22.9602616 0.0412865297 22.9602616" id="Fill-104"></polygon>
                    <polygon points="0.0412865297 13.5640869 157.220505 13.5640869 157.220505 0.59421619 0.0412865297 0.59421619" id="Fill-106"></polygon>
                </g>
                <polygon points="115.691854 561.697376 138.838202 561.697376 138.838202 548.727505 115.691854 548.727505" fill="#E8F6FF" id="Fill-109"></polygon>
                <polygon points="115.691854 539.331331 138.838202 539.331331 138.838202 526.36146 115.691854 526.36146" fill="#E8F6FF" id="Fill-110"></polygon>
                <polygon points="92.5455057 561.697376 115.691854 561.697376 115.691854 548.727505 92.5455057 548.727505" fill="#E8F6FF" id="Fill-111"></polygon>
                <polygon points="115.341968 494.59994 138.488316 494.59994 138.488316 481.630069 115.341968 481.630069" fill="#E8F6FF" id="Fill-112"></polygon>
                <polygon points="58.9298733 472.233894 82.0762215 472.233894 82.0762215 459.264724 58.9298733 459.264724" fill="#E8F6FF" id="Fill-113"></polygon>
                <polygon points="82.0755217 472.233894 105.22187 472.233894 105.22187 459.264724 82.0755217 459.264724" fill="#E8F6FF" id="Fill-114"></polygon>
                <polygon points="943.31533 579.248101 1056.38654 579.248101 1056.38654 419.616716 943.31533 419.616716" fill="#D6EEFF" id="Fill-115"></polygon>
                <polygon points="816.997443 579.248101 943.31533 579.248101 943.31533 419.616716 816.997443 419.616716" fill="#E8F6FF" id="Fill-116"></polygon>
                <polygon points="953.147822 436.897978 1078.35447 436.897978 1078.35447 404.918789 953.147822 404.918789" fill="#C3E4FF" id="Fill-117"></polygon>
                <polygon points="816.997443 444.82436 1056.38654 444.82436 1056.38654 436.897978 816.997443 436.897978" fill="#AAD5FF" id="Fill-118"></polygon>
                <polygon points="816.997443 459.135942 1056.38654 459.135942 1056.38654 451.21026 816.997443 451.21026" fill="#C3E4FF" id="Fill-119"></polygon>
                <polygon points="816.997443 534.30534 1056.38654 534.30534 1056.38654 526.378958 816.997443 526.378958" fill="#AAD5FF" id="Fill-120"></polygon>
                <polygon points="816.997443 548.616221 1056.38654 548.616221 1056.38654 540.689839 816.997443 540.689839" fill="#C3E4FF" id="Fill-121"></polygon>
                <polygon points="793.750328 436.897978 953.148522 436.897978 953.148522 404.918789 793.750328 404.918789" fill="#D6EEFF" id="Fill-122"></polygon>
                <polygon points="953.147822 526.378958 1078.35447 526.378958 1078.35447 472.387173 953.147822 472.387173" fill="#C3E4FF" id="Fill-123"></polygon>
                <polygon points="793.750328 526.378958 953.148522 526.378958 953.148522 472.387173 793.750328 472.387173" fill="#D6EEFF" id="Fill-124"></polygon>
                <path fill="#E8F6FF" id="Fill-125" d="M-6.99771692e-05,581.135664 L1225.56957,581.135664 L-6.99771692e-05,581.135664 Z"></path>
                <line stroke-linecap="round" stroke-width="14" stroke="#D6EEFF" id="Stroke-126" y2="581.135944" x2="0.000279908676" y1="581.135944" x1="1225.56922"></line>
            </g>
        </g>
    </g>
</svg>