<svg xmlns="http://www.w3.org/2000/svg" version="1.1" xmlns:xlink="http://www.w3.org/1999/xlink" xmlns:svgjs="http://svgjs.dev/svgjs" viewBox="0 0 1920 1080" style="overflow: hidden; height: 85vh;" class="overflow-hidden rounded-md drop-shadow-lg transition duration-300"><rect width="1920" height="1080" fill="#22194d"/><g clip-path="url(&quot;#SvgjsClipPath2967&quot;)"><g transform="matrix(0.5750000000000001,-0.9959292143521044,0.9959292143521044,0.5750000000000001,-148.8605510797263,1140.9304195650514)"><path d="M0,-1080C-4.692907138042448,-1000.4657420179674,-13.220334922662708,-752.8132371507259,-28.157442828254688,-602.7944521078044C-43.09455073384667,-452.775667064883,-91.71834925477278,-297.3873191863537,-89.62264743355188,-179.88728974247152C-87.52694561233098,-62.387260298589354,-31.097075164192077,-27.36823106214395,-15.583231900929263,102.20572455548854C-0.06938863766644943,231.77968017312105,-1.1299060425287637,468.6275736762592,3.460412146025007,597.5564439633235C8.050730334578777,726.4853142503879,3.4026478942668845,742.5029946324319,11.958677230393363,875.7789462778745C20.51470656651984,1009.0548979233172,57.88347127803945,1246.17272502713,54.79658816278388,1397.2121538359797C51.7097050475283,1548.2515826448296,2.570143232657216,1654.8842114369697,-6.562621461140097,1782.0155191309732C-15.69538615493741,1909.1468268249766,-1.0937702435233494,2097.002586521829,0,2160L 1920 2160 L 1920 -1080 Z" fill="url(&quot;#SvgjsLinearGradient2959&quot;)"/><path d="M240,-1080C242.57132235191298,-978.5122089638552,252.8041698300675,-693.8850078395891,255.4279341114779,-471.073253783131C258.0516983928883,-248.26149972667295,252.13905945242485,20.84860580778988,255.74258568846224,256.8705243387482C259.3461119244996,492.89244286970654,285.4113756340027,747.8882385790931,277.0490915277022,945.058257402619C268.68680742140174,1142.2282762261448,211.7437296386099,1237.4003468470064,205.5688810506595,1439.8906372799033C199.39403246270913,1642.3809277128003,234.2614801751099,2039.981772879984,240,2160L 1920 2160 L 1920 -1080 Z" fill="url(&quot;#SvgjsLinearGradient2960&quot;)"/><path d="M480,-1080C489.5722308649121,-1023.904319871917,551.3555415721597,-869.3543428888795,537.4333851894726,-743.4259192315018C523.5112288067854,-617.4974955741241,392.7275024705602,-476.6379943626704,396.4670617038773,-324.429458055734C400.2066209371944,-172.22092174879762,532.2368023827714,25.075641404064953,559.8707405893751,169.8252986101165C587.5046787959789,314.5749558161681,587.6394672913324,410.2625757475994,562.2706909434994,544.0684851805753C536.9019145956664,677.8743946135512,429.912500259757,851.8466194487505,407.6580825023771,972.660755207972C385.40366474499723,1093.4748909671935,429.3283282426692,1142.813811958085,428.7441843992201,1268.9532997359038C428.160040555771,1395.0927875137227,395.610583508219,1580.9898984975366,404.1532194416823,1729.497681874886C412.69585537514564,1878.0054652522354,467.35886990694706,2088.2496136458144,480,2160L 1920 2160 L 1920 -1080 Z" fill="url(&quot;#SvgjsLinearGradient2961&quot;)"/><path d="M720,-1080C728.7823871870709,-1011.0970819602998,768.0720461802813,-814.9426456360271,772.694323122425,-666.5824917617986C777.3166000645687,-518.22233788757,743.2412683802411,-347.4954072119173,747.7336616528622,-189.8390767546285C752.2260549254834,-32.18274629733969,793.9486508630462,131.96796022000217,799.6486827581516,279.3554909819342C805.348714653257,426.7430217438663,810.4384683515482,549.5168807185308,781.933853023495,694.4861078169638C753.4292376954418,839.4553349153967,641.9883986055678,976.2151782349129,628.6209907898324,1149.1708535725318C615.253582974097,1322.1265289101507,686.499571260721,1563.7486354380994,701.7294061290823,1732.2201598426775C716.9592409974437,1900.6916842472556,716.9549010215137,2088.7033599737797,720,2160L 1920 2160 L 1920 -1080 Z" fill="url(&quot;#SvgjsLinearGradient2962&quot;)"/><path d="M960,-1080C966.8664098467581,-967.5640865621173,1012.9337952215485,-609.1893152929529,1001.1984590805486,-405.3845193727036C989.4631229395486,-201.57972345245432,893.4477786786908,-71.87085166980793,889.5879831540001,142.82877552149586C885.7281876293093,357.5284027127997,963.3351079799727,646.0552955309419,978.0396859324038,882.8132437751192C992.7442638848349,1119.5711920192966,980.8220651906539,1350.5120056157466,977.8154508685866,1563.37646498656C974.8088365465193,1776.2409243573734,962.9692418114311,2060.5627441644265,960,2160L 1920 2160 L 1920 -1080 Z" fill="url(&quot;#SvgjsLinearGradient2963&quot;)"/><path d="M1200,-1080C1206.6497836748797,-968.9735858387962,1231.7405245859088,-637.314515661998,1239.8987020492787,-413.84151503277747C1248.0568795126485,-190.36851440355687,1248.7288447529527,46.720795417511425,1248.9490647802193,260.83800377532367C1249.1692848074858,474.9552121331359,1235.5899210654209,656.5163718032275,1241.220022212878,870.861735114096C1246.850123360335,1085.2070984249644,1289.5996753671081,1332.0538061595505,1282.7296716649619,1546.9101836405346C1275.8596679628156,1761.7665611215186,1213.788278610827,2057.818363940089,1200,2160L 1920 2160 L 1920 -1080 Z" fill="url(&quot;#SvgjsLinearGradient2964&quot;)"/><path d="M1440,-1080C1426.3488458224497,-981.2763781903425,1364.3856389851437,-670.0795384283473,1358.0930749346985,-487.6582691420548C1351.8005108842533,-305.2369998557623,1400.2279635416505,-169.07089932956453,1402.244615697329,14.527615717755111C1404.2612678530074,198.12613076507475,1360.6881158040508,425.4096749781462,1370.1929878687693,613.9328211418631C1379.6978599334877,802.45596730558,1449.329883258217,969.8536172891572,1459.2738480856397,1145.6664927000568C1469.2178129130623,1321.4793681109563,1433.069084847578,1499.7544890572697,1429.8567768333048,1668.8100736072602C1426.6444688190315,1837.8656581572507,1438.3094628055508,2078.135012267877,1440,2160L 1920 2160 L 1920 -1080 Z" fill="url(&quot;#SvgjsLinearGradient2965&quot;)"/><path d="M1680,-1080C1671.9094330526132,-975.6787302480834,1637.9396833970065,-644.2731530111254,1631.4565983156797,-454.0723814885006C1624.9735132343528,-263.8716099658758,1646.4078848106792,-93.56292850636524,1641.1014895120388,61.20462913574863C1635.7950942133984,215.9721867778625,1586.07642475078,305.4676712552505,1599.6182265238367,474.53296436418276C1613.1600282968934,643.598257473115,1720.0864473738613,869.3997174173907,1722.3523001503795,1075.5963877893425C1724.6181529268977,1281.7930581612945,1620.2720598746753,1530.9790512274515,1613.2133431829454,1711.7129865958943C1606.1546264912156,1892.4469219643372,1668.868890530491,2085.285497765982,1680,2160L 1920 2160 L 1920 -1080 Z" fill="url(&quot;#SvgjsLinearGradient2966&quot;)"/></g></g><defs><linearGradient x1="0.1" y1="0" x2="0" y2="1" id="SvgjsLinearGradient2959"><stop stop-color="#22194d" offset="0"/><stop stop-color="#19194d" offset="0"/></linearGradient><linearGradient x1="0.1" y1="0" x2="0" y2="1" id="SvgjsLinearGradient2960"><stop stop-color="#342777" offset="0"/><stop stop-color="#272777" offset="0.125"/></linearGradient><linearGradient x1="0.1" y1="0" x2="0" y2="1" id="SvgjsLinearGradient2961"><stop stop-color="#4734a1" offset="0"/><stop stop-color="#3534a1" offset="0.25"/></linearGradient><linearGradient x1="0.1" y1="0" x2="0" y2="1" id="SvgjsLinearGradient2962"><stop stop-color="#5e48c4" offset="0"/><stop stop-color="#4948c4" offset="0.375"/></linearGradient><linearGradient x1="0.1" y1="0" x2="0" y2="1" id="SvgjsLinearGradient2963"><stop stop-color="#8372d1" offset="0"/><stop stop-color="#7372d1" offset="0.5"/></linearGradient><linearGradient x1="0.1" y1="0" x2="0" y2="1" id="SvgjsLinearGradient2964"><stop stop-color="#a79cdf" offset="0"/><stop stop-color="#9c9cdf" offset="0.625"/></linearGradient><linearGradient x1="0.1" y1="0" x2="0" y2="1" id="SvgjsLinearGradient2965"><stop stop-color="#ccc6ec" offset="0"/><stop stop-color="#c6c6ec" offset="0.75"/></linearGradient><linearGradient x1="0.1" y1="0" x2="0" y2="1" id="SvgjsLinearGradient2966"><stop stop-color="#f1effa" offset="0"/><stop stop-color="#efeffa" offset="0.875"/></linearGradient><clipPath id="SvgjsClipPath2967"><rect width="1920" height="1080"/></clipPath></defs></svg>