<svg xmlns:xlink="http://www.w3.org/1999/xlink" xmlns="http://www.w3.org/2000/svg" version="1.1" viewBox="0 0 1180 542" height="542px" width="1180px">
    <title>星球</title>
    <defs>
        <polygon points="0 0.127105505 51.1936522 0.127105505 51.1936522 51.3215612 0 51.3215612" id="path-1"></polygon>
        <polygon points="0.190480712 39.5168563 328.523905 171.128128 344.168534 132.098685 15.8351098 0.487412844" id="path-3"></polygon>
        <linearGradient id="linearGradient-5" y2="59.4903643%" x2="97.7258114%" y1="40.5095939%" x1="2.27407711%">
            <stop offset="0%" stop-color="#D4EEFF"></stop>
            <stop offset="100%" stop-color="#D4EEFF"></stop>
        </linearGradient>
        <polygon points="0.291323442 32.348526 273.659157 141.927477 286.447976 110.023645 13.0794421 0.445394495" id="path-6"></polygon>
        <linearGradient id="linearGradient-8" y2="59.4664183%" x2="97.7654495%" y1="40.5334168%" x1="2.23456789%">
            <stop offset="0%" stop-color="#D4EEFF"></stop>
            <stop offset="100%" stop-color="#D4EEFF"></stop>
        </linearGradient>
        <polygon points="0.373331549 0.535733945 222.76908 0.535733945 222.76908 222.934018 0.373331549 222.934018" id="path-9"></polygon>
        <polygon points="0.601554896 63.6641009 5.01902671 124.933856 28.4516558 106.9423 22.3289614 0.0287125382" id="path-11"></polygon>
    </defs>
    <g fill-rule="evenodd" fill="none" stroke-width="1" stroke="none" id="Page-1">
        <g transform="translate(-4812.000000, -3624.000000)" id="背景">
            <g transform="translate(4812.000000, 3624.000000)" id="星球">
                <g transform="translate(0.000000, 33.779251)" id="BG">
                    <path fill="#C3E4FF" id="Fill-1" d="M308.728127,25.9414281 C308.728127,40.0785015 297.267771,51.5390061 283.131581,51.5390061 C268.994691,51.5390061 257.534335,40.0785015 257.534335,25.9414281 C257.534335,11.8043547 268.994691,0.344550459 283.131581,0.344550459 C297.267771,0.344550459 308.728127,11.8043547 308.728127,25.9414281"></path>
                    <path fill="#C3E4FF" id="Fill-3" d="M1024.0949,295.34102 C1024.0949,309.478093 1012.63524,320.937898 998.497652,320.937898 C984.361462,320.937898 972.901106,309.478093 972.901106,295.34102 C972.901106,281.203946 984.361462,269.744142 998.497652,269.744142 C1012.63524,269.744142 1024.0949,281.203946 1024.0949,295.34102"></path>
                    <path fill="#D6EEFF" id="Fill-5" d="M1145.85423,25.9414281 C1145.85423,40.0785015 1134.39458,51.5390061 1120.25699,51.5390061 C1106.1208,51.5390061 1094.66044,40.0785015 1094.66044,25.9414281 C1094.66044,11.8043547 1106.1208,0.344550459 1120.25699,0.344550459 C1134.39458,0.344550459 1145.85423,11.8043547 1145.85423,25.9414281"></path>
                    <g transform="translate(0.000000, 233.902141)" id="Group-9">
                        <mask fill="white" id="mask-2">
                            <use xlink:href="#path-1"></use>
                        </mask>
                        <g id="Clip-8"></g>
                        <path mask="url(#mask-2)" fill="#D6EEFF" id="Fill-7" d="M51.1936522,25.7239832 C51.1936522,39.8610566 39.7332961,51.3215612 25.5971062,51.3215612 C11.460216,51.3215612 -0.000140059347,39.8610566 -0.000140059347,25.7239832 C-0.000140059347,11.5869098 11.460216,0.127105505 25.5971062,0.127105505 C39.7332961,0.127105505 51.1936522,11.5869098 51.1936522,25.7239832"></path>
                    </g>
                    <path fill="#C3E4FF" id="Fill-10" d="M551.255803,446.524649 C551.255803,447.750184 551.171767,448.95471 551.003696,450.131224 C549.400017,461.532202 540.27515,470.524129 528.80429,471.931744 C527.774853,472.057098 526.724408,472.120826 525.659957,472.120826 C511.520966,472.120826 500.064112,460.663823 500.064112,446.524649 C500.064112,440.544037 502.108978,435.046637 505.540432,430.690735 C510.218414,424.766147 517.445477,420.956484 525.575922,420.928472 L525.659957,420.928472 C539.798948,420.928472 551.255803,432.385475 551.255803,446.524649"></path>
                    <path fill="#D6EEFF" id="Fill-12" d="M551.003486,450.131154 C549.399807,461.532132 540.27494,470.524059 528.80408,471.931674 C528.40491,470.454729 528.194821,468.89935 528.194821,467.295649 C528.194821,457.435343 536.19221,449.430848 546.059391,449.430848 C547.775818,449.430848 549.434821,449.675955 551.003486,450.131154"></path>
                    <path fill="#D6EEFF" id="Fill-14" d="M525.659747,422.328873 C525.659747,424.394775 525.127522,426.341625 524.196127,428.029362 C523.033634,430.123277 521.254881,431.832023 519.097967,432.896488 C517.522299,433.68083 515.743545,434.122023 513.86675,434.122023 C510.617373,434.122023 507.676127,432.805448 505.540222,430.690524 C510.218204,424.765937 517.445266,420.956274 525.575712,420.928261 C525.631735,421.38346 525.659747,421.852665 525.659747,422.328873"></path>
                    <path fill="#D6EEFF" id="Fill-16" d="M528.196642,432.552708 C528.196642,435.068906 526.156678,437.108897 523.639811,437.108897 C521.123645,437.108897 519.083681,435.068906 519.083681,432.552708 C519.083681,430.035809 521.123645,427.995818 523.639811,427.995818 C526.156678,427.995818 528.196642,430.035809 528.196642,432.552708"></path>
                </g>
                <g transform="translate(273.816024, 241.770076)" id="Group-21">
                    <mask fill="white" id="mask-4">
                        <use xlink:href="#path-3"></use>
                    </mask>
                    <g id="Clip-20"></g>
                    <polygon points="0.190480712 39.5168563 328.523905 171.128128 344.168534 132.098685 15.8351098 0.487412844" mask="url(#mask-4)" fill="url(#linearGradient-5)" id="Fill-19"></polygon>
                </g>
                <g transform="translate(506.314540, 236.867936)" id="Group-24">
                    <mask fill="white" id="mask-7">
                        <use xlink:href="#path-6"></use>
                    </mask>
                    <g id="Clip-23"></g>
                    <polygon points="0.291323442 32.348526 273.659157 141.927477 286.447976 110.023645 13.0794421 0.445394495" mask="url(#mask-7)" fill="url(#linearGradient-8)" id="Fill-22"></polygon>
                </g>
                <g transform="translate(7.002967, 0.164572)" id="Group-122">
                    <path fill="#D6EEFF" id="Fill-25" d="M795.316709,369.072787 C791.785812,377.882634 781.781373,382.161503 772.97094,378.630561 C764.161207,375.098919 759.881694,365.09435 763.41329,356.284503 C766.944887,347.474656 776.949326,343.195087 785.759759,346.726729 C794.569492,350.258371 798.848305,360.26294 795.316709,369.072787"></path>
                    <path fill="#D6EEFF" id="Fill-27" d="M622.673745,401.041047 C618.353614,411.818754 606.114528,417.053539 595.336961,412.733353 C584.558694,408.413166 579.324677,396.173922 583.644807,385.396215 C587.964938,374.618509 600.203323,369.383723 610.981591,373.703909 C621.758457,378.024096 626.993875,390.263341 622.673745,401.041047"></path>
                    <path fill="#AAD5FF" id="Fill-29" d="M614.395397,397.722788 C611.907943,403.928898 604.860857,406.943014 598.654827,404.455528 C592.448798,401.968042 589.43472,394.920865 591.922174,388.714754 C594.409628,382.508644 601.456715,379.494528 607.663445,381.982014 C613.868774,384.469501 616.883551,391.516678 614.395397,397.722788"></path>
                    <path fill="#AAD5FF" id="Fill-31" d="M787.943074,366.117006 C786.04457,370.854575 780.66419,373.15578 775.926682,371.256551 C771.189175,369.358022 768.888,363.977572 770.787205,359.240003 C772.686409,354.502435 778.066089,352.20123 782.803596,354.100459 C787.541104,355.999688 789.842279,361.379438 787.943074,366.117006"></path>
                    <path fill="#D6EEFF" id="Fill-33" d="M278.193439,362.96395 C273.351587,362.96395 269.424323,374.876151 269.424323,389.567867 C269.424323,374.876151 265.49916,362.96395 260.655207,362.96395 C265.49916,362.96395 269.424323,351.051748 269.424323,336.360032 C269.424323,351.051748 273.351587,362.96395 278.193439,362.96395"></path>
                    <path fill="#C3E4FF" id="Fill-35" d="M120.024488,419.946573 C120.024488,423.438998 117.193188,426.271035 113.700808,426.271035 C110.207728,426.271035 107.376428,423.438998 107.376428,419.946573 C107.376428,416.454148 110.207728,413.622811 113.700808,413.622811 C117.193188,413.622811 120.024488,416.454148 120.024488,419.946573"></path>
                    <path fill="#C3E4FF" id="Fill-37" d="M405.879243,405.327689 C405.879243,408.820114 403.047943,411.652151 399.555563,411.652151 C396.062483,411.652151 393.231183,408.820114 393.231183,405.327689 C393.231183,401.835264 396.062483,399.003928 399.555563,399.003928 C403.047943,399.003928 405.879243,401.835264 405.879243,405.327689"></path>
                    <path fill="#AAD5FF" id="Fill-39" d="M348.999601,198.568911 C348.999601,204.477391 344.210272,209.266783 338.301868,209.266783 C332.394165,209.266783 327.604135,204.477391 327.604135,198.568911 C327.604135,192.660431 332.394165,187.87104 338.301868,187.87104 C344.210272,187.87104 348.999601,192.660431 348.999601,198.568911"></path>
                    <path fill="#D6EEFF" id="Fill-41" d="M430.213224,40.2132404 C430.213224,43.7056654 427.381924,46.5370018 423.889544,46.5370018 C420.396464,46.5370018 417.565164,43.7056654 417.565164,40.2132404 C417.565164,36.7208153 420.396464,33.8894789 423.889544,33.8894789 C427.381924,33.8894789 430.213224,36.7208153 430.213224,40.2132404"></path>
                    <path fill="#D6EEFF" id="Fill-43" d="M275.748212,103.825169 C275.748212,107.317594 272.916913,110.14893 269.424533,110.14893 C265.931453,110.14893 263.100153,107.317594 263.100153,103.825169 C263.100153,100.332743 265.931453,97.501407 269.424533,97.501407 C272.916913,97.501407 275.748212,100.332743 275.748212,103.825169"></path>
                    <path fill="#D6EEFF" id="Fill-45" d="M13.0292309,44.1644358 C13.0292309,47.6568609 10.1979312,50.4881972 6.70555134,50.4881972 C3.21247122,50.4881972 0.381171513,47.6568609 0.381171513,44.1644358 C0.381171513,40.6720107 3.21247122,37.839974 6.70555134,37.839974 C10.1979312,37.839974 13.0292309,40.6720107 13.0292309,44.1644358"></path>
                    <path fill="#D6EEFF" id="Fill-47" d="M1087.65775,25.192241 C1087.65775,28.6846661 1084.82645,31.5160024 1081.33407,31.5160024 C1077.84099,31.5160024 1075.00969,28.6846661 1075.00969,25.192241 C1075.00969,21.6998159 1077.84099,18.8684795 1081.33407,18.8684795 C1084.82645,18.8684795 1087.65775,21.6998159 1087.65775,25.192241"></path>
                    <path fill="#D6EEFF" id="Fill-49" d="M1162.63054,134.173201 C1162.63054,137.665626 1159.79924,140.496962 1156.30686,140.496962 C1152.81378,140.496962 1149.98248,137.665626 1149.98248,134.173201 C1149.98248,130.680776 1152.81378,127.849439 1156.30686,127.849439 C1159.79924,127.849439 1162.63054,130.680776 1162.63054,134.173201"></path>
                    <path fill="#D6EEFF" id="Fill-51" d="M834.748737,220.926034 C834.748737,224.418459 831.917437,227.249796 828.425058,227.249796 C824.931977,227.249796 822.100678,224.418459 822.100678,220.926034 C822.100678,217.433609 824.931977,214.602273 828.425058,214.602273 C831.917437,214.602273 834.748737,217.433609 834.748737,220.926034"></path>
                    <path fill="#D6EEFF" id="Fill-53" d="M855.110005,37.8401841 C855.110005,41.3333095 852.278705,44.1646459 848.786325,44.1646459 C845.293245,44.1646459 842.461945,41.3333095 842.461945,37.8401841 C842.461945,34.347759 845.293245,31.5164226 848.786325,31.5164226 C852.278705,31.5164226 855.110005,34.347759 855.110005,37.8401841"></path>
                    <path fill="#C3E4FF" id="Fill-55" d="M1125.90194,425.43613 C1125.90194,428.928555 1123.07064,431.760592 1119.57826,431.760592 C1116.08518,431.760592 1113.25388,428.928555 1113.25388,425.43613 C1113.25388,421.943705 1116.08518,419.112369 1119.57826,419.112369 C1123.07064,419.112369 1125.90194,421.943705 1125.90194,425.43613"></path>
                    <path fill="#E8F6FF" id="Fill-57" d="M535.441352,44.1644358 C529.644296,44.1644358 524.941803,58.4275642 524.941803,76.0178456 C524.941803,58.4275642 520.242112,44.1644358 514.442254,44.1644358 C520.242112,44.1644358 524.941803,29.9013073 524.941803,12.3103257 C524.941803,29.9013073 529.644296,44.1644358 535.441352,44.1644358"></path>
                    <path fill="#E8F6FF" id="Fill-59" d="M867.814508,431.760452 C860.799636,431.760452 855.109725,449.018088 855.109725,470.301782 C855.109725,449.018088 849.424015,431.760452 842.406342,431.760452 C849.424015,431.760452 855.109725,414.502115 855.109725,393.218421 C855.109725,414.502115 860.799636,431.760452 867.814508,431.760452"></path>
                    <path fill="#D6EEFF" id="Fill-61" d="M366.616826,505.736416 C360.168494,505.736416 354.937277,521.602544 354.937277,541.171189 C354.937277,521.602544 349.708862,505.736416 343.257728,505.736416 C349.708862,505.736416 354.937277,489.869587 354.937277,470.301642 C354.937277,489.869587 360.168494,505.736416 366.616826,505.736416"></path>
                    <path fill="#D6EEFF" id="Fill-63" d="M1156.30665,289.422946 C1150.80722,289.422946 1146.34703,302.952154 1146.34703,319.63834 C1146.34703,302.952154 1141.88894,289.422946 1136.38811,289.422946 C1141.88894,289.422946 1146.34703,275.893738 1146.34703,259.207551 C1146.34703,275.893738 1150.80722,289.422946 1156.30665,289.422946"></path>
                    <path fill="#D6EEFF" id="Fill-65" d="M660.997274,527.347433 C660.997274,530.335638 658.574947,532.757995 655.586781,532.757995 C652.600015,532.757995 650.177689,530.335638 650.177689,527.347433 C650.177689,524.359228 652.600015,521.93687 655.586781,521.93687 C658.574947,521.93687 660.997274,524.359228 660.997274,527.347433"></path>
                    <path fill="#D6EEFF" id="Fill-67" d="M589.832349,149.497923 C589.832349,153.729171 586.402296,157.159269 582.171103,157.159269 C577.939209,157.159269 574.508456,153.729171 574.508456,149.497923 C574.508456,145.266675 577.939209,141.835877 582.171103,141.835877 C586.402296,141.835877 589.832349,145.266675 589.832349,149.497923"></path>
                    <path fill="#C3E4FF" id="Fill-69" d="M469.85247,111.115142 C469.85247,113.724481 467.736874,115.839405 465.128268,115.839405 C462.518963,115.839405 460.404066,113.724481 460.404066,111.115142 C460.404066,108.505802 462.518963,106.390879 465.128268,106.390879 C467.736874,106.390879 469.85247,108.505802 469.85247,111.115142"></path>
                    <path fill="#D6EEFF" id="Fill-71" d="M668.23407,51.6629602 C668.23407,59.3187034 662.028741,65.5248135 654.372396,65.5248135 C646.716753,65.5248135 640.511423,59.3187034 640.511423,51.6629602 C640.511423,44.0072171 646.716753,37.801107 654.372396,37.801107 C662.028741,37.801107 668.23407,44.0072171 668.23407,51.6629602"></path>
                    <path fill="#AAD5FF" id="Fill-73" d="M1031.0534,532.757645 C1031.0534,536.612829 1027.92797,539.738994 1024.07284,539.738994 C1020.21701,539.738994 1017.09158,536.612829 1017.09158,532.757645 C1017.09158,528.901761 1020.21701,525.776297 1024.07284,525.776297 C1027.92797,525.776297 1031.0534,528.901761 1031.0534,532.757645"></path>
                    <path fill="#AAD5FF" id="Fill-75" d="M231.117251,517.547913 C231.117251,519.972372 229.151518,521.93743 226.727091,521.93743 C224.303364,521.93743 222.337631,519.972372 222.337631,517.547913 C222.337631,515.123455 224.303364,513.157696 226.727091,513.157696 C229.151518,513.157696 231.117251,515.123455 231.117251,517.547913"></path>
                    <path fill="#AAD5FF" id="Fill-77" d="M703.025302,242.667308 C703.025302,245.091767 701.060269,247.057525 698.635842,247.057525 C696.212115,247.057525 694.246382,245.091767 694.246382,242.667308 C694.246382,240.24285 696.212115,238.277791 698.635842,238.277791 C701.060269,238.277791 703.025302,240.24285 703.025302,242.667308"></path>
                    <path fill="#D6EEFF" id="Fill-79" d="M511.036291,289.422946 C511.036291,291.847404 509.071258,293.812462 506.646831,293.812462 C504.222404,293.812462 502.257371,291.847404 502.257371,289.422946 C502.257371,286.998487 504.222404,285.033429 506.646831,285.033429 C509.071258,285.033429 511.036291,286.998487 511.036291,289.422946"></path>
                    <path fill="#D6EEFF" id="Fill-81" d="M364.729316,213.936632 C364.729316,216.361091 362.764284,218.326149 360.339856,218.326149 C357.915429,218.326149 355.949696,216.361091 355.949696,213.936632 C355.949696,211.512173 357.915429,209.547115 360.339856,209.547115 C362.764284,209.547115 364.729316,211.512173 364.729316,213.936632"></path>
                    <path fill="#D6EEFF" id="Fill-83" d="M22.9834588,451.856637 C22.9834588,454.281096 21.0177258,456.246154 18.5939988,456.246154 C16.1695715,456.246154 14.2038386,454.281096 14.2038386,451.856637 C14.2038386,449.432179 16.1695715,447.46642 18.5939988,447.46642 C21.0177258,447.46642 22.9834588,449.432179 22.9834588,451.856637"></path>
                    <path fill="#D6EEFF" id="Fill-85" d="M319.464096,289.422946 C319.464096,291.847404 317.499064,293.812462 315.074636,293.812462 C312.650209,293.812462 310.684476,291.847404 310.684476,289.422946 C310.684476,286.998487 312.650209,285.033429 315.074636,285.033429 C317.499064,285.033429 319.464096,286.998487 319.464096,289.422946"></path>
                    <path fill="#D6EEFF" id="Fill-87" d="M130.683144,319.63834 C130.683144,322.581725 128.297233,324.967667 125.353886,324.967667 C122.410539,324.967667 120.024628,322.581725 120.024628,319.63834 C120.024628,316.694955 122.410539,314.309013 125.353886,314.309013 C128.297233,314.309013 130.683144,316.694955 130.683144,319.63834"></path>
                    <g transform="translate(18.207715, 0.000000)" id="Group-91">
                        <mask fill="white" id="mask-10">
                            <use xlink:href="#path-9"></use>
                        </mask>
                        <g id="Clip-90"></g>
                        <path mask="url(#mask-10)" fill="#D6EEFF" id="Fill-89" d="M97.4245116,222.018161 C158.33142,229.831473 214.040025,186.789277 221.853236,125.88158 C229.666446,64.9738829 186.624808,9.26455566 125.7179,1.45124373 C64.8109923,-6.36136789 9.10238694,36.6801275 1.28917626,97.5878248 C-6.52403442,158.495522 36.5176036,214.204849 97.4245116,222.018161"></path>
                    </g>
                    <path fill="#E8F6FF" id="Fill-92" d="M169.365295,64.820726 C178.588203,66.0035425 187.024678,59.4857963 188.207479,50.2627688 C189.39098,41.0397413 182.873319,32.6031572 173.64971,31.4203407 C164.426802,30.2368239 155.990328,36.75457 154.807526,45.9782979 C153.624025,55.2013254 160.142387,63.6379095 169.365295,64.820726"></path>
                    <path fill="#E8F6FF" id="Fill-94" d="M170.592215,90.5651581 C174.268773,91.0364639 177.632298,88.4383294 178.104298,84.7610235 C178.575598,81.084418 175.976796,77.7208492 172.300239,77.2495434 C168.62298,76.7782376 165.260155,79.3756719 164.788155,83.0529777 C164.316856,86.7302835 166.915657,90.093152 170.592215,90.5651581"></path>
                    <path fill="#E8F6FF" id="Fill-96" d="M95.5075893,179.127512 C99.1841472,179.599518 102.547672,177.000683 103.019672,173.324077 C103.490972,169.646772 100.892171,166.283903 97.2156131,165.811897 C93.5383549,165.340591 90.17553,167.938726 89.70353,171.615331 C89.2322303,175.292637 91.8310315,178.656206 95.5075893,179.127512"></path>
                    <path fill="#C3E4FF" id="Fill-98" d="M59.965149,130.267525 C94.6907632,158.519262 122.722241,115.39303 122.722241,115.39303 C74.7049947,130.090348 61.4182647,84.0676508 117.207404,65.8064765 C151.809066,54.47903 147.855191,23.1606538 139.859202,1.00998104 C80.5580748,-4.4299945 27.1359383,38.0344489 19.4964012,97.590556 C16.9970421,117.074464 19.6987869,136.02544 26.5308819,153.049174 C28.8607691,149.803256 30.649327,146.65118 31.5611134,144.106269 C35.6151312,132.813837 34.5387751,109.581192 59.965149,130.267525"></path>
                    <path fill="#C3E4FF" id="Fill-100" d="M115.631877,222.021243 C176.542286,229.834554 232.248791,186.788157 240.061301,125.884661 C242.246227,108.852524 240.452767,92.2279642 235.40993,76.9444902 C231.784494,82.911796 224.605752,88.5709673 211.048007,81.0994046 C187.914405,68.3601416 183.188802,104.027417 201.942049,116.532077 C212.522132,123.587658 221.86269,136.511102 208.786749,145.925313 C194.422262,156.26883 169.800529,110.731444 147.017075,127.465952 C116.41971,149.940866 170.073645,183.706111 149.599069,193.787713 C136.799746,200.089765 127.624458,182.413346 127.624458,182.413346 C127.624458,182.413346 99.6539062,208.457019 74.3220724,186.736334 C65.8947015,179.509879 54.2179537,178.671613 48.0749507,187.153717 C65.1754967,205.699215 88.6536451,218.561031 115.631877,222.021243"></path>
                    <path fill="#D6EEFF" id="Fill-102" d="M1056.50757,168.419135 C1046.05704,229.20568 988.309175,270.011799 927.523418,259.561836 C866.737662,249.111872 825.932071,191.363255 836.381899,130.57601 C846.832427,69.7894657 904.580297,28.9840468 965.366053,39.4340101 C1026.15181,49.8839734 1066.9574,107.632591 1056.50757,168.419135"></path>
                    <path fill="#E8F6FF" id="Fill-104" d="M1058.10922,146.898738 C1034.13876,151.646811 974.606539,159.81938 927.903049,136.303111 C884.064474,114.222469 879.694622,92.8351294 858.539358,80.5867807 C862.047144,76.1118266 865.885471,71.9310009 870.009518,68.079319 C892.194919,69.1507869 928.883465,75.4255269 965.90115,101.392866 C997.330468,123.445496 1031.10578,127.619319 1055.79824,126.708921 C1057.17082,133.284793 1057.95516,140.035741 1058.10922,146.898738"></path>
                    <path fill="#E8F6FF" id="Fill-106" d="M911.025688,155.288402 C909.386993,155.939686 879.015824,167.53675 834.749367,150.148157 C834.722056,143.69834 835.247278,137.157484 836.381059,130.574609 C837.690614,122.934273 839.756489,115.616077 842.47364,108.669044 C858.245023,125.658463 894.120525,161.451093 911.025688,155.288402"></path>
                    <path fill="#E8F6FF" id="Fill-108" d="M1050.65827,189.694356 C1046.09934,201.557536 1039.6216,212.32824 1031.65922,221.705335 C1003.7664,211.375824 950.816969,195.296802 911.096138,204.393775 C888.79869,209.499004 868.24498,209.835151 851.542903,208.364509 C846.010559,199.456619 841.71774,189.764387 838.860529,179.553928 C862.803675,179.231787 908.428007,177.144876 946.446417,166.864387 C985.453645,156.317781 1023.1156,179.175763 1050.65827,189.694356"></path>
                    <path fill="#E8F6FF" id="Fill-110" d="M1012.5414,239.521044 C1007.68765,243.085601 1002.54117,246.257986 997.16989,248.996182 C969.683243,237.952359 934.500335,226.026151 915.51459,229.36661 C917.861284,228.86239 957.407041,220.906916 1012.5414,239.521044"></path>
                    <path fill="#E8F6FF" id="Fill-112" d="M1048.22845,103.50786 C1026.83439,102.051224 982.707992,95.0201535 947.105606,63.0371872 C927.5036,45.4314991 962.9036,48.8840067 1012.39357,59.3465755 C1027.97517,70.7615602 1040.3074,86.03523 1048.22845,103.50786"></path>
                    <path fill="#E8F6FF" id="Fill-114" d="M959.01037,260.495343 C948.772032,261.650848 938.197551,261.398738 927.525029,259.563937 C903.532863,255.439135 882.657017,243.947117 866.823308,227.805068 C886.164804,229.058616 925.045979,234.899166 959.01037,260.495343"></path>
                    <path fill="#E8F6FF" id="Fill-116" d="M922.342623,59.4935697 C918.792819,59.1714291 904.337994,57.5397165 893.245294,51.3069948 C898.981424,48.1906339 905.003276,45.5714902 911.24292,43.491582 C915.276629,51.215955 919.696202,58.5411538 922.342623,59.4935697"></path>
                    <path fill="#E8F6FF" id="Fill-118" d="M923.1619,59.5564572 C922.916796,59.6194847 922.651384,59.5914725 922.357259,59.4934297 C922.875479,59.535448 923.1619,59.5564572 923.1619,59.5564572"></path>
                    <path stroke-linecap="round" stroke-width="19.6" stroke="#AAD5FF" id="Stroke-120" d="M1086.62649,150.968285 C1134.93086,166.50597 1164.7572,182.71945 1162.68222,194.790621 C1159.04348,215.958065 1058.67345,216.370545 938.499729,195.710823 C818.326709,175.051102 723.857379,141.142994 727.496121,119.974851 C729.627824,107.574536 764.953593,102.297031 818.009474,104.205365"></path>
                </g>
                <g transform="translate(619.062315, 405.641636)" id="Group-167">
                    <mask fill="white" id="mask-12">
                        <use xlink:href="#path-11"></use>
                    </mask>
                    <g id="Clip-166"></g>
                    <polygon points="0.601554896 63.6641009 5.01902671 124.933856 28.4516558 106.9423 22.3289614 0.0287125382" mask="url(#mask-12)" id="Fill-165"></polygon>
                </g>
            </g>
        </g>
    </g>
</svg>